<mxfile host="app.diagrams.net" modified="2023-12-20T02:29:32.039Z" agent="Mozilla/5.0 (Macintosh; Intel Mac OS X 10_15_7) AppleWebKit/537.36 (KHTML, like Gecko) Chrome/119.0.0.0 Safari/537.36" etag="Y-vmHCLYagbL5gAbS2TO" version="22.1.11" type="github">
  <diagram name="Page-1" id="74e2e168-ea6b-b213-b513-2b3c1d86103e">
    <mxGraphModel dx="1194" dy="697" grid="1" gridSize="10" guides="1" tooltips="1" connect="1" arrows="1" fold="1" page="1" pageScale="1" pageWidth="1100" pageHeight="850" background="none" math="0" shadow="0">
      <root>
        <mxCell id="0" />
        <mxCell id="1" parent="0" />
        <mxCell id="77e6c97f196da883-1" value="Pool" style="swimlane;html=1;childLayout=stackLayout;startSize=20;rounded=0;shadow=0;labelBackgroundColor=none;strokeWidth=1;fontFamily=Verdana;fontSize=8;align=center;" parent="1" vertex="1">
          <mxGeometry x="30" y="40" width="950" height="750" as="geometry" />
        </mxCell>
        <mxCell id="77e6c97f196da883-2" value="Lane 1" style="swimlane;html=1;startSize=20;" parent="77e6c97f196da883-1" vertex="1">
          <mxGeometry y="20" width="230" height="730" as="geometry" />
        </mxCell>
        <mxCell id="EjdJTIBzd1827Ozx3afC-8" value="" style="edgeStyle=orthogonalEdgeStyle;rounded=0;orthogonalLoop=1;jettySize=auto;html=1;" edge="1" parent="77e6c97f196da883-2" source="EjdJTIBzd1827Ozx3afC-1" target="EjdJTIBzd1827Ozx3afC-7">
          <mxGeometry relative="1" as="geometry" />
        </mxCell>
        <mxCell id="EjdJTIBzd1827Ozx3afC-1" value="用户录入商品文字数据" style="rounded=0;whiteSpace=wrap;html=1;" vertex="1" parent="77e6c97f196da883-2">
          <mxGeometry x="30" y="80" width="170" height="60" as="geometry" />
        </mxCell>
        <mxCell id="EjdJTIBzd1827Ozx3afC-12" value="" style="edgeStyle=orthogonalEdgeStyle;rounded=0;orthogonalLoop=1;jettySize=auto;html=1;" edge="1" parent="77e6c97f196da883-2" source="EjdJTIBzd1827Ozx3afC-7" target="EjdJTIBzd1827Ozx3afC-11">
          <mxGeometry relative="1" as="geometry" />
        </mxCell>
        <mxCell id="EjdJTIBzd1827Ozx3afC-7" value="将文字用符号分隔成数组" style="rounded=0;whiteSpace=wrap;html=1;" vertex="1" parent="77e6c97f196da883-2">
          <mxGeometry x="30" y="180" width="170" height="60" as="geometry" />
        </mxCell>
        <mxCell id="EjdJTIBzd1827Ozx3afC-14" value="" style="edgeStyle=orthogonalEdgeStyle;rounded=0;orthogonalLoop=1;jettySize=auto;html=1;" edge="1" parent="77e6c97f196da883-2" source="EjdJTIBzd1827Ozx3afC-11" target="EjdJTIBzd1827Ozx3afC-13">
          <mxGeometry relative="1" as="geometry" />
        </mxCell>
        <mxCell id="EjdJTIBzd1827Ozx3afC-11" value="去除无用符号" style="rounded=0;whiteSpace=wrap;html=1;" vertex="1" parent="77e6c97f196da883-2">
          <mxGeometry x="30" y="270" width="170" height="60" as="geometry" />
        </mxCell>
        <mxCell id="EjdJTIBzd1827Ozx3afC-16" value="" style="edgeStyle=orthogonalEdgeStyle;rounded=0;orthogonalLoop=1;jettySize=auto;html=1;" edge="1" parent="77e6c97f196da883-2" source="EjdJTIBzd1827Ozx3afC-13" target="EjdJTIBzd1827Ozx3afC-15">
          <mxGeometry relative="1" as="geometry" />
        </mxCell>
        <mxCell id="EjdJTIBzd1827Ozx3afC-13" value="中文字符改成数字字符" style="rounded=0;whiteSpace=wrap;html=1;" vertex="1" parent="77e6c97f196da883-2">
          <mxGeometry x="55" y="365" width="120" height="60" as="geometry" />
        </mxCell>
        <mxCell id="EjdJTIBzd1827Ozx3afC-18" value="" style="edgeStyle=orthogonalEdgeStyle;rounded=0;orthogonalLoop=1;jettySize=auto;html=1;" edge="1" parent="77e6c97f196da883-2" source="EjdJTIBzd1827Ozx3afC-15" target="EjdJTIBzd1827Ozx3afC-17">
          <mxGeometry relative="1" as="geometry" />
        </mxCell>
        <mxCell id="EjdJTIBzd1827Ozx3afC-15" value="处理特殊字符" style="rounded=0;whiteSpace=wrap;html=1;" vertex="1" parent="77e6c97f196da883-2">
          <mxGeometry x="55" y="470" width="120" height="60" as="geometry" />
        </mxCell>
        <mxCell id="EjdJTIBzd1827Ozx3afC-17" value="解析出单位以及名称以及数量" style="rounded=0;whiteSpace=wrap;html=1;" vertex="1" parent="77e6c97f196da883-2">
          <mxGeometry x="55" y="560" width="120" height="60" as="geometry" />
        </mxCell>
        <mxCell id="EjdJTIBzd1827Ozx3afC-2" value="Lane 1" style="swimlane;html=1;startSize=20;" vertex="1" parent="77e6c97f196da883-1">
          <mxGeometry x="230" y="20" width="195" height="730" as="geometry" />
        </mxCell>
      </root>
    </mxGraphModel>
  </diagram>
</mxfile>
